<svg xmlns="http://www.w3.org/2000/svg" viewBox="0 0 236 72" fill="none">
  <defs>
    <linearGradient id="refract" x1="172" y1="40" x2="200" y2="60" gradientUnits="userSpaceOnUse">
      <stop offset="0%" stop-color="#111827"/>
      <stop offset="100%" stop-color="#ea580c"/>
    </linearGradient>
  </defs>

  <g stroke="#111827" stroke-width="2.8" stroke-linecap="round" stroke-linejoin="round">
    <!-- r -->
    <path d="M12,60 V28 Q12,24 18,24 L26,24"/>

    <!-- e -->
    <path d="M64,42 A13,18 0 1 0 60,52"/>
    <line x1="38" y1="42" x2="64" y2="42"/>

    <!-- f -->
    <path d="M82,60 V12 Q82,6 90,6"/>
    <line x1="76" y1="24" x2="92" y2="24"/>

    <!-- r -->
    <path d="M106,60 V28 Q106,24 112,24 L120,24"/>

    <!-- a -->
    <path d="M145,24 A13,18 0 0 1 145,60 A13,18 0 0 1 145,24 Z"/>
    <line x1="158" y1="24" x2="158" y2="60"/>

    <!-- k: vertical stem (medium boundary) -->
    <line x1="172" y1="8" x2="172" y2="60"/>
    <!-- k: upper arm (incident ray) -->
    <line x1="172" y1="40" x2="188" y2="24"/>

    <!-- t -->
    <line x1="214" y1="14" x2="214" y2="60"/>
    <line x1="208" y1="24" x2="224" y2="24"/>
  </g>

  <!-- k: lower arm (refracted ray) — angle shifts + color disperses -->
  <line x1="172" y1="40" x2="200" y2="60" stroke="url(#refract)" stroke-width="2.8" stroke-linecap="round"/>
</svg>
